<?xml version="1.0" encoding="utf-8"?>
<!DOCTYPE svg PUBLIC "-//W3C//DTD SVG 1.0//EN" "http://www.w3.org/TR/2001/REC-SVG-20010904/DTD/svg10.dtd">
<svg version="1.0" xmlns="http://www.w3.org/2000/svg" width="225px" height="225px" viewBox="0 0 225 225" preserveAspectRatio="xMidYMid meet">
 <g fill="#ffffff">
  <path d="M0 112.50 l0 -112.50 112.50 0 112.50 0 0 112.50 0 112.50 -112.50 0 -112.50 0 0 -112.50z m85.65 60.45 c23.30 -23.15 25 -24.70 26.80 -24.85 l1.90 -0.15 35.95 35.75 35.95 35.75 16.90 -16.85 16.90 -16.85 -36 -35.85 c-33.25 -33.05 -36.05 -35.95 -36.05 -37.50 0 -1.50 2.80 -4.40 36.05 -37.40 l36.05 -35.75 -16.95 -16.90 -16.95 -16.90 -67.75 67.35 c-37.25 37.05 -78 77.65 -90.60 90.15 l-22.85 22.80 16.85 16.85 16.90 16.90 11 -10.90 c6.05 -6 22.20 -22.05 35.90 -35.65z m-29.75 -150.55 l-17.15 -16.90 -16.90 16.90 -16.90 16.85 17.15 16.85 17.15 16.85 16.90 -16.85 16.90 -16.85 -17.15 -16.85z"/>
 </g>
 <g fill="#243f8f">
  <path d="M20.15 204.05 l-18.15 -18.30 23.65 -23.50 c12.95 -12.95 47.90 -47.70 77.60 -77.25 29.70 -29.55 60.55 -60.20 68.50 -68.10 l14.50 -14.40 18.40 18.35 18.45 18.40 -36.90 36.60 -36.85 36.55 36.85 36.65 36.85 36.65 -18.15 18.30 c-10 10.10 -18.30 18.30 -18.45 18.30 -0.20 -0.05 -16.80 -16.45 -36.95 -36.45 -20.15 -20 -36.80 -36.30 -37 -36.25 -0.20 0.10 -16.80 16.45 -36.95 36.40 -20.10 19.95 -36.75 36.25 -36.95 36.30 -0.20 0 -8.50 -8.20 -18.45 -18.25z"/>
 </g>
 <g fill="#27a9e0">
  <path d="M20.60 57.60 l-18.65 -18.35 18.40 -18.35 18.40 -18.35 18.40 18.10 c10.10 9.95 18.40 18.35 18.35 18.60 0 0.30 -8.15 8.65 -18.10 18.60 l-18.15 18.10 -18.65 -18.35z"/>
 </g>
</svg>